<svg width="565" height="550" viewBox="0 0 565 550" fill="none" xmlns="http://www.w3.org/2000/svg">
<rect x="18" y="0.5" width="547" height="549" rx="273.5" fill="#1F1F22"/>
<rect y="362.5" width="186" height="187" rx="93" fill="#1F1F22"/>
<path d="M484 391.5C484 338.722 462.771 288.105 424.982 250.786C387.193 213.466 335.941 192.5 282.5 192.5C229.059 192.5 177.807 213.466 140.018 250.786C102.229 288.105 81 338.722 81 391.5L484 391.5Z" fill="#F8F8F8"/>
<path d="M271.54 119.845H304.481C307.056 119.845 309.526 120.769 311.347 122.413C313.168 124.058 314.191 126.288 314.191 128.614V142.121C314.191 144.447 313.168 146.677 311.347 148.322C309.526 149.966 307.056 150.89 304.481 150.89L304.217 161.652C304.194 162.597 302.994 162.985 302.421 162.233L293.792 150.89H271.517C268.942 150.89 266.472 149.966 264.651 148.322C262.829 146.677 261.806 144.447 261.806 142.121V128.614C261.806 127.461 262.058 126.319 262.548 125.254C263.037 124.188 263.755 123.221 264.659 122.406C265.563 121.591 266.636 120.946 267.817 120.507C268.998 120.067 270.263 119.842 271.54 119.845Z" fill="#5974FF"/>
<path d="M278.459 104.5H246.453C243.953 104.518 241.561 105.518 239.792 107.284C238.024 109.05 237.02 111.441 236.999 113.94V128.522C237.02 131.021 238.024 133.412 239.792 135.178C241.561 136.944 243.953 137.944 246.453 137.961L246.699 149.49C246.72 150.461 247.974 150.836 248.523 150.034L256.804 137.961H278.459C280.962 137.961 283.363 136.967 285.134 135.197C286.904 133.426 287.898 131.025 287.898 128.522V113.94C287.898 111.436 286.904 109.035 285.134 107.265C283.363 105.495 280.962 104.5 278.459 104.5Z" fill="#C9D1FF"/>
<path d="M185.591 259.241C142.305 266.208 129.116 221.891 149.144 195.5C149.144 195.5 175.524 207.448 185.591 208.447C190.896 208.974 187.977 228.486 189.202 231.352L197.995 226.373C198.633 216.411 200.175 215.07 202.88 212.925C205.396 210.93 212.161 213.924 205.811 226.373C201.52 234.784 199.193 231.528 201.341 259.241C203.424 286.125 214.104 293.729 226.274 293C217.683 306.613 207.354 325.169 179.863 323.418C152.373 321.668 159.818 296.921 166.977 284.766C173.182 284.037 185.591 281.146 185.591 273.677V259.241Z" fill="#161485"/>
<path d="M186.629 258.608C142.325 265.605 128.825 221.104 149.325 194.604C149.325 194.604 174.993 191.502 188.32 201.998C188.322 201.998 188.323 201.999 188.325 201.999L202.749 199C203.402 188.996 201.556 214.254 204.325 212.101C206.9 210.097 213.825 213.104 207.325 225.604C202.932 234.051 201.668 233.177 203.866 261.004C205.999 288 228.273 282.5 232.773 289C223.98 302.67 208.904 324.809 180.767 323.051C152.629 321.294 160.249 296.444 167.577 284.239C173.927 283.507 186.629 280.604 186.629 273.104V258.608Z" fill="white"/>
<path d="M204.79 175.75C194.58 166.821 186.356 164.5 173.276 164.5C160.195 164.5 149.597 171.986 141.5 172.637C133.404 173.288 127.81 165.782 122.826 175.75C117.842 185.717 136.537 202.541 148.986 205.023C161.436 207.505 178.87 203.782 183.854 203.151C188.629 202.824 193.421 202.824 198.196 203.151C198.196 203.151 194.453 214.991 198.196 218.734C201.939 222.477 202.549 224.959 202.549 227.44C202.762 230.18 203.177 232.899 203.79 235.578L204.79 242L209.5 233.5C216 225.5 217.906 217.914 219.372 210.678C221.224 199.469 215 184.678 204.79 175.75Z" fill="#3957F1"/>
<path fill-rule="evenodd" clip-rule="evenodd" d="M204.408 235.677C205.83 232.72 206.887 229.585 207.545 226.339C209.396 215.13 200.059 203.962 200.059 203.962L188.22 192.001C188.22 192.001 174.529 180.161 161.449 180.161C153.747 180.161 146.906 182.756 140.929 185.024C136.755 186.607 133.003 188.031 129.673 188.298C128.182 188.418 126.775 188.261 125.441 187.988C130.633 195.841 141.273 203.421 149.311 205.023C159.696 207.094 173.55 204.846 180.752 203.678C182.183 203.446 183.352 203.256 184.178 203.152C188.953 202.824 193.745 202.824 198.52 203.152C198.52 203.152 194.777 214.991 198.52 218.734C202.263 222.477 202.873 224.959 202.873 227.441C203.087 230.18 203.502 232.9 204.114 235.578L204.408 235.677Z" fill="#04146C"/>
<path d="M248.273 299C241.193 277.903 221.223 277.5 209.273 277.5C209.273 277.5 206.928 275.221 177.773 279C150.773 282.5 147.773 296.597 147.773 302.5V373.993V392.696L172.198 396.614C188.711 396.614 183.983 396.344 212.729 398.185C241.476 400.025 260.218 393.378 268.773 389.287C263.269 357.343 253.503 314.582 248.273 299Z" fill="#3957F1"/>
<path d="M168.404 323.676C171.326 363.957 170.326 379.613 170.326 397.176L165.826 396.676C168.904 369.638 167.404 367.398 168.404 323.676Z" fill="white"/>
<path d="M245 385.937L204 395.5L238.411 380.787L233.286 344.006L238.411 331.5L245 385.937Z" fill="white"/>
<path d="M201.226 307.348C191.086 313.193 182.274 296.5 183.774 278L195.774 276.48L208.99 276.48C208.318 286.056 211.365 301.503 201.226 307.348Z" fill="white"/>
<path d="M213.349 219.492C202.989 219.93 200.085 201.125 200.085 201.125C200.085 201.125 182.157 199.034 178.943 185.738C178.943 185.738 162.579 197.338 149.076 193.142C135.573 188.946 137.645 173.757 138.969 170.465C140.294 167.173 147.934 172.81 147.934 172.81C147.934 172.81 148.371 164.248 150.598 163.273C152.825 162.298 155.545 167.342 155.545 167.342C155.545 167.342 172.375 160.786 187.964 160.504C203.553 160.221 211.925 175.523 211.925 175.523C211.925 175.523 220.382 176.936 223.272 182.587C226.161 188.239 219.959 219.266 213.349 219.492Z" fill="#3957F1"/>
<path d="M201.859 189.094C200.928 185.693 199.117 182.597 196.609 180.118C194.115 177.702 190.901 176.164 187.455 175.736C186.602 175.586 185.74 175.497 184.875 175.469L182.261 175.547C180.526 175.68 178.801 176.069 177.077 176.359C175.398 176.859 173.663 177.248 172.005 177.827C170.348 178.405 168.668 179.084 167 179.673C168.591 178.872 170.203 178.127 171.816 177.349C173.429 176.57 175.153 176.17 176.877 175.569C180.36 174.56 184.01 174.261 187.611 174.69C191.26 175.185 194.634 176.898 197.188 179.551C199.664 182.193 201.292 185.518 201.859 189.094Z" fill="#BDBBBB"/>
<path d="M171.807 230.038C174.025 229.825 176.134 229.039 177.894 227.77C179.654 226.5 180.994 224.798 181.762 222.857C182.531 220.916 182.696 218.814 182.24 216.791C181.784 214.767 180.725 212.902 179.182 211.409C177.64 209.916 175.677 208.854 173.516 208.345C171.355 207.835 169.083 207.898 166.959 208.527C164.835 209.156 162.944 210.324 161.501 211.9C160.058 213.476 159.12 215.396 158.796 217.442C158.341 220.333 159.136 223.274 161.009 225.623C162.882 227.972 165.68 229.54 168.794 229.985C169.792 230.119 170.804 230.137 171.807 230.038ZM169.522 209.535C171.659 209.333 173.812 209.755 175.678 210.742C177.544 211.729 179.031 213.232 179.932 215.041C180.832 216.85 181.1 218.875 180.7 220.832C180.299 222.79 179.249 224.582 177.696 225.959C176.143 227.337 174.165 228.229 172.039 228.513C169.912 228.797 167.743 228.458 165.834 227.544C163.925 226.629 162.372 225.184 161.392 223.411C160.412 221.638 160.054 219.625 160.367 217.654C160.708 215.552 161.793 213.614 163.449 212.145C165.106 210.675 167.242 209.757 169.522 209.535Z" fill="#0A2FF1"/>
<path d="M144.469 229.55C149.011 229.126 152.639 224.424 152.725 218.662C152.822 215.906 151.983 213.191 150.325 210.901C149.679 209.88 148.76 209.031 147.658 208.436C146.555 207.84 145.305 207.518 144.029 207.501C142.753 207.483 141.494 207.771 140.372 208.337C139.251 208.902 138.306 209.726 137.628 210.729C135.91 212.978 134.991 215.668 135 218.424C134.9 224.516 138.799 229.523 143.684 229.589C143.946 229.59 144.209 229.576 144.469 229.55ZM143.398 208.993H144.012C145.027 209.053 146.011 209.336 146.883 209.82C147.755 210.304 148.49 210.974 149.026 211.775C150.489 213.81 151.228 216.218 151.139 218.662C151.054 223.96 147.74 228.185 143.712 228.132C139.685 228.079 136.5 223.748 136.571 218.477C136.555 216.031 137.364 213.641 138.885 211.642C139.395 210.932 140.061 210.33 140.838 209.873C141.616 209.417 142.488 209.117 143.398 208.993Z" fill="#0A2FF1"/>
<path d="M159.18 218.727L160.223 217.601C158.437 216.171 154.281 214.224 151.339 217.072L152.481 218.105C155.124 215.548 159.009 218.595 159.18 218.727Z" fill="#0A2FF1"/>
<path d="M212.212 222.264L213.641 221.602C213.312 220.993 210.298 215.562 206.756 214.98C203.443 214.45 182.062 216.026 181.162 216.092L181.291 217.562C187.418 217.112 203.914 216.013 206.471 216.436C208.799 216.821 211.37 220.781 212.212 222.264Z" fill="#0A2FF1"/>
<path d="M184.017 277.601C172.142 289.504 163.119 310.456 185.384 296.666L184.017 277.601Z" fill="#04146C"/>
<path d="M208.885 276.026C218.964 288.239 231.869 307.956 208.463 296.205L208.885 276.026Z" fill="#04146C"/>
<path d="M408.242 206.952C418.794 189.963 425.829 199.874 428.027 206.952V223.063L392.122 242.103L376.734 280.916C384.55 297.759 401.794 333.056 408.242 339.5C416.303 347.556 388.806 294.456 412.638 300.632C442.999 308.5 452.345 263.284 450.879 248.638C450.172 241.564 444.558 206.952 434.759 188.589C428.897 177.604 422.302 170.379 412.639 167.408C396.901 162.567 354.155 159.296 346.691 195.968C336.74 244.849 298.998 280.916 335.836 286.5C372.674 292.084 310.998 300.632 335.836 300.632C375.835 300.632 376.734 242.835 368.673 237.709C360.613 232.583 362.811 201.826 376.734 217.937C390.656 234.048 395.053 228.189 408.242 206.952Z" fill="#3957F1"/>
<path d="M438.233 247.318C438.232 221.869 435.502 193.522 419.817 196.353L413.739 214.997L371.113 254.546L374.139 299.612L411.732 321.274C415.106 320.562 390.384 303.137 400.998 299.612C414.265 295.207 413.744 302.517 425.998 291.501C438.233 280.501 438.233 270.499 438.233 247.318Z" fill="#04146C"/>
<path d="M384.825 261.508C436.224 279.084 437.063 221.199 425.233 200.383C413.509 185.737 405.163 211.395 393.724 217.958C382.839 224.205 378.963 217.57 373.834 212.444C368.705 207.318 361.377 212.444 361.377 221.964C361.377 231.484 370.903 233.681 368.705 261.508C366.946 283.771 341.593 287.872 329.136 287.139C337.929 300.809 362.55 327.709 390.688 325.952C418.826 324.194 411.205 299.344 403.877 287.139C397.527 286.407 384.826 283.771 384.826 279.084L384.825 261.508Z" fill="#F8F8F8"/>
<path d="M344.63 286.878C376.871 326.129 395.679 303.232 401.052 286.878C412.19 282.191 416.929 288.83 417.906 292.736L423.035 369.628L423.035 399.653H401.052C398.854 398.921 387.276 397.896 358.552 399.653C329.828 401.411 305.549 394.039 297 390.133C299.687 363.526 306.819 306.796 313.854 292.736C320.888 278.676 337.302 282.972 344.63 286.878Z" fill="#8A9AF1"/>
<path d="M395.923 398.761H410.578C404.13 398.761 404.472 379.233 405.449 369.469C413.07 355.995 405.693 334.562 401.052 325.531C411.018 350.722 406.182 363.611 395.923 373.863V398.761Z" fill="#0A2FF1"/>
<path d="M324.112 379.721L365.146 389.241L330.707 374.595L335.836 337.98L330.707 325.531L324.112 379.721Z" fill="#0A2FF1"/>
<path d="M522.612 404.113H318C318 400.015 321.322 396.692 325.421 396.692H368.917L388.467 290.774C388.818 288.877 390.472 287.5 392.401 287.5H541.249C543.753 287.5 545.641 289.774 545.181 292.235L524.578 402.48C524.402 403.427 523.575 404.113 522.612 404.113Z" fill="#04146C"/>
<path d="M464.344 354.757H448.515C448.047 354.757 447.66 354.368 447.66 353.896L451.314 338.819C451.314 338.348 451.701 337.959 452.169 337.959H467.998C468.466 337.959 468.853 338.348 468.853 338.819L465.199 353.896C465.179 354.368 464.812 354.757 464.344 354.757ZM452.092 350.086C452.092 350.721 452.499 351.151 453.15 351.151C453.801 351.151 454.208 350.721 454.208 350.086L456.401 342.568C456.401 341.933 455.994 341.503 455.343 341.503C454.692 341.503 454.285 341.933 454.285 342.568L452.092 350.086ZM458.4 350.086C458.4 350.721 458.807 351.151 459.458 351.151C460.109 351.151 460.516 350.721 460.516 350.086L462.708 343.469H464.702C465.313 343.469 465.801 343.162 465.801 342.589C465.801 342.015 465.313 341.708 464.702 341.708H458.619C458.008 341.708 457.52 342.015 457.52 342.589C457.52 343.162 458.008 343.469 458.619 343.469H460.613L458.42 350.086H458.4Z" fill="white"/>
<rect x="74" y="436.5" width="430" height="9" fill="#0A2FF1"/>
<path d="M546 209.5C546 200.217 542.26 191.315 535.602 184.751C528.945 178.187 519.915 174.5 510.5 174.5C501.085 174.5 492.055 178.187 485.398 184.751C478.74 191.315 475 200.217 475 209.5L546 209.5Z" fill="#3FFFF3"/>
<circle cx="47" cy="174.5" r="29" fill="#3FFFF3"/>
<circle cx="54" cy="168.5" r="28.5" stroke="#0A2FF1"/>
<path d="M71.3452 399.83H256C256 396.128 252.999 393.127 249.297 393.127H210.009L192.409 297.774C192.059 295.877 190.405 294.5 188.475 294.5H54.8168C52.3132 294.5 50.4249 296.774 50.8849 299.235L69.3793 398.198C69.5562 399.144 70.3824 399.83 71.3452 399.83Z" fill="#04146C"/>
<circle cx="127.228" cy="331.985" r="4.96785" fill="white"/>
</svg>
